<?xml version="1.0" encoding="utf-8"?>
<!-- Svg Vector Icons : http://www.onlinewebfonts.com/icon -->
<!DOCTYPE svg PUBLIC "-//W3C//DTD SVG 1.1//EN" "http://www.w3.org/Graphics/SVG/1.1/DTD/svg11.dtd">
<svg version="1.1" xmlns="http://www.w3.org/2000/svg" xmlns:xlink="http://www.w3.org/1999/xlink" x="0px" y="0px" viewBox="0 0 256 256" enable-background="new 0 0 256 256" xml:space="preserve">
<metadata> Svg Vector Icons : http://www.onlinewebfonts.com/icon </metadata>
<g><g><g><path fill="#fff" d="M30.5,50.2c-7.7,1.6-14.7,6.6-17.7,12.7C10,68.7,10,67.4,10,128.4c0,60.9-0.1,58.9,2.9,64.8c2.1,4.2,5.7,7.7,10.5,10c7.3,3.5,0,3.3,104.6,3.3c104.6,0,97.3,0.2,104.6-3.3c6.9-3.4,11.1-8.8,12.7-16.3c1-4.8,1-113.1,0-118c-1.6-7.5-5.8-12.9-12.7-16.3c-7.3-3.5,0-3.3-104.9-3.3C47.6,49.5,33.3,49.6,30.5,50.2z M224.2,57.9c6.3,1.5,10.6,4.8,12.6,9.9c1.1,2.6,1.1,2.7,1.2,30.9c0.1,23.4,0,28.2-0.5,28c-0.4-0.1-25-15.1-54.7-33.3C153,75.2,128.3,60.3,128,60.3s-25.1,14.9-54.8,33.1c-29.8,18.2-54.4,33.2-54.7,33.3c-0.5,0.2-0.6-5.1-0.5-28c0.1-28.2,0.1-28.3,1.2-30.9c2-4.9,6.3-8.3,12.3-9.8C35.7,57,219.9,56.9,224.2,57.9z M177.6,98.8c26.7,16,48.3,29.2,48.2,29.4c-1.1,1-97.2,58.2-97.8,58.2c-1.1,0-98.2-58.3-97.8-58.7c0.2-0.2,22.3-13.5,49-29.4c28.5-17.1,48.9-29,49.3-28.8C128.8,69.6,150.9,82.8,177.6,98.8z M73.1,162.6c29.8,18.2,54.5,33.1,54.8,33.1s25-14.9,54.8-33.1c29.8-18.2,54.4-33.2,54.7-33.3c0.6-0.2,0.6,4.4,0.5,28c-0.1,28.2-0.1,28.3-1.2,30.9c-1.4,3.5-3.6,5.9-6.9,7.7c-5.7,3,0.8,2.9-101.9,2.9s-96.3,0.2-101.9-2.9c-3.3-1.8-5.5-4.2-6.9-7.7c-1.1-2.6-1.1-2.7-1.2-30.9c-0.1-22.9,0-28.2,0.5-28C18.7,129.4,43.4,144.4,73.1,162.6z"/><path fill="#fff" d="M121.5,85.2c-3.7,0.7-8.5,2.2-11.3,3.4c-11.8,5.3-20.8,16-24.2,29c-1.5,5.6-1.5,14.7,0,20.5c3.9,15.7,15.8,27.6,31.4,31.8c4.1,1.1,12.9,1.5,17.3,0.7c17.3-2.8,31.1-15.5,35.3-32.5c1.4-5.8,1.4-14.4,0-20.2c-3.8-15.4-15.6-27.5-30.9-31.7c-2.6-0.7-5.2-1-10-1.1C125.6,85,122.2,85.1,121.5,85.2z M135.2,93.5c11.3,2.4,20.9,10.3,25.3,21.1c2.2,5.2,3.4,12.9,2.6,16.8l-0.3,1.4l-3.6-2.7c-16.4-12.2-36.2-18.9-55.7-18.9c-3.5,0-6.5-0.2-6.5-0.4c0-0.2,0.9-1.7,2-3.2C107.6,96,121.4,90.6,135.2,93.5z M112.3,118.1c12.9,1.6,26.1,6.2,36.9,12.9c5.3,3.3,12,8.4,12,9.1c0,1.1-3.1,6.8-5,9.2c-7.1,9.1-17,14-28.2,14c-18.5,0-33.7-14-35.3-32.6c-0.3-3.6,0.2-9.5,1.1-11.8l0.5-1.2h7.1C105.2,117.6,110.2,117.8,112.3,118.1z"/></g></g></g>
</svg>