<?xml version="1.0" encoding="utf-8"?>
<!-- Svg Vector Icons : http://www.onlinewebfonts.com/icon -->
<!DOCTYPE svg PUBLIC "-//W3C//DTD SVG 1.1//EN" "http://www.w3.org/Graphics/SVG/1.1/DTD/svg11.dtd">
<svg version="1.1" xmlns="http://www.w3.org/2000/svg" xmlns:xlink="http://www.w3.org/1999/xlink" x="0px" y="0px" viewBox="0 0 256 256" enable-background="new 0 0 256 256" xml:space="preserve">
<metadata> Svg Vector Icons : http://www.onlinewebfonts.com/icon </metadata>
<g><g><g><path fill="#000000" d="M121.3,57.5c-6.1,1.9-9.1,4.5-57.9,53.5c-54.6,54.7-52.9,52.6-53.3,62c-0.5,9.6,5.1,18.7,14.5,23.6c4,2,5,2.3,10.5,2.3c5.2,0,6.7-0.3,9.6-1.9c2.4-1.2,15.2-13.5,43.3-41.6l39.9-39.9l40.4,40.3c38.6,38.5,40.7,40.5,44.8,42c11.8,4.4,24.9-1.7,31-14.3c1.7-3.3,2-5,2-9.4c0-9.8,2.2-7.3-54.4-63.7c-47.9-47.9-50.7-50.5-54.7-52C132.6,56.8,125,56.4,121.3,57.5z"/></g></g></g>
</svg>