<?xml version="1.0" standalone="no"?>
<!DOCTYPE svg PUBLIC "-//W3C//DTD SVG 20010904//EN"
 "http://www.w3.org/TR/2001/REC-SVG-20010904/DTD/svg10.dtd">
<svg version="1.0" xmlns="http://www.w3.org/2000/svg"
 width="1080.000000pt" height="1080.000000pt" viewBox="0 0 1080.000000 1080.000000"
 preserveAspectRatio="xMidYMid meet">
<metadata>
Created by potrace 1.14, written by Peter Selinger 2001-2017
</metadata>
<g transform="translate(0.000000,1080.000000) scale(0.100000,-0.100000)"
fill="#000000" stroke="none">
<path d="M5089 10146 c-2 -2 -51 -7 -109 -10 -122 -8 -185 -14 -220 -21 -14
-2 -47 -7 -75 -10 -27 -3 -59 -7 -71 -9 -12 -2 -45 -7 -75 -11 -30 -4 -97 -15
-149 -26 -52 -11 -106 -22 -120 -24 -69 -12 -354 -89 -462 -123 -381 -123
-804 -315 -1076 -488 -29 -19 -55 -34 -57 -34 -9 0 -249 -164 -347 -237 -176
-131 -343 -277 -528 -462 -216 -217 -290 -301 -462 -526 -44 -58 -218 -315
-247 -365 -8 -14 -37 -63 -64 -110 -141 -242 -280 -550 -379 -840 -42 -124
-117 -398 -134 -490 -2 -14 -9 -45 -14 -70 -5 -25 -12 -58 -15 -75 -3 -16 -7
-39 -9 -50 -2 -11 -7 -40 -10 -65 -3 -25 -8 -55 -11 -68 -7 -36 -25 -208 -33
-307 -14 -185 -6 -718 13 -825 2 -14 6 -45 9 -70 13 -107 17 -138 27 -195 6
-33 13 -73 16 -90 3 -16 16 -79 29 -140 14 -60 27 -121 30 -133 4 -22 16 -66
49 -183 17 -60 93 -288 104 -314 5 -11 24 -58 42 -105 77 -199 250 -544 353
-705 18 -27 47 -72 64 -100 126 -197 338 -471 487 -631 211 -225 465 -456 664
-602 42 -31 78 -58 81 -61 21 -24 340 -228 465 -298 468 -262 1028 -469 1510
-557 37 -7 201 -36 235 -41 81 -13 237 -30 390 -42 125 -10 596 -10 730 0 146
11 285 26 390 42 621 97 1137 270 1690 568 227 122 589 366 760 513 310 265
521 481 726 739 43 55 82 102 87 103 4 2 7 10 7 17 0 7 3 15 7 17 8 3 12 8
105 143 54 78 178 275 191 305 4 8 17 31 29 50 68 112 218 434 295 635 29 76
117 346 128 395 2 8 15 59 29 112 28 109 66 295 81 403 3 22 8 51 10 65 2 14
7 52 11 85 3 33 8 69 10 80 11 56 19 267 19 490 0 282 -5 369 -35 590 -6 39
-12 88 -15 110 -13 111 -95 482 -124 558 -6 15 -9 27 -6 27 5 0 -84 262 -122
360 -114 297 -275 609 -451 880 -62 96 -262 373 -282 390 -3 3 -43 50 -90 105
-107 127 -289 316 -401 417 -14 13 -43 39 -65 58 -349 317 -843 633 -1294 830
-189 82 -557 216 -645 234 -11 3 -72 19 -135 35 -63 17 -131 34 -150 37 -19 3
-51 9 -70 14 -30 8 -103 22 -235 45 -69 12 -145 22 -215 29 -119 12 -170 18
-205 22 -48 6 -660 15 -666 10z"/>
</g>
</svg>
